<mxfile host="app.diagrams.net" modified="2024-02-07T17:38:09.455Z" agent="Mozilla/5.0 (Windows NT 10.0; Win64; x64) AppleWebKit/537.36 (KHTML, like Gecko) Chrome/120.0.0.0 Safari/537.36 OPR/106.0.0.0" version="23.1.2" etag="eS1QmBXQe-hGgYQZoeYn" type="github">
  <diagram name="Page-1" id="Z0PzN7wO9ez0qel_FK5M">
    <mxGraphModel>
      <root>
        <mxCell id="0" />
        <mxCell id="1" parent="0" />
      </root>
    </mxGraphModel>
  </diagram>
</mxfile>
